<svg width="172" height="82" viewBox="0 0 172 82" fill="none" xmlns="http://www.w3.org/2000/svg">
<path d="M167.092 5.60663H167.519C168.014 5.60663 168.23 5.53837 168.23 5.11181C168.23 4.75919 168.014 4.617 167.519 4.617H167.024V5.61231L167.092 5.60663ZM166.95 7.73944H166.239V4.04256L167.661 3.97431C167.718 3.96863 167.792 3.96863 167.86 3.96863C168.253 3.96863 168.622 4.04825 168.958 4.19613L168.941 4.19044C169.197 4.33263 169.367 4.59994 169.367 4.90707C169.367 4.92982 169.367 4.95257 169.367 4.97532V4.96963C169.367 5.39619 169.083 5.68056 168.588 5.74881C168.941 5.891 169.083 6.17537 169.225 6.67019L169.441 7.59157H168.588C168.446 7.44938 168.446 7.09675 168.304 6.67019C168.162 6.31187 168.019 6.17538 167.525 6.17538H167.172L167.03 7.73944H166.95ZM164.823 5.891C164.823 5.91375 164.823 5.94219 164.823 5.97062C164.823 7.49487 166.063 8.73475 167.587 8.73475C167.616 8.73475 167.644 8.73475 167.673 8.73475H167.667C169.174 8.65512 170.368 7.41525 170.368 5.891C170.368 4.36675 169.174 3.12687 167.673 3.04725H167.667C167.593 3.04156 167.513 3.03588 167.428 3.03588C165.983 3.03588 164.812 4.2075 164.812 5.65213C164.812 5.73744 164.817 5.81707 164.823 5.90238V5.891ZM171.29 5.891C171.29 5.91375 171.29 5.94788 171.29 5.97631C171.29 7.93281 169.703 9.52531 167.741 9.52531C167.661 9.52531 167.587 9.52531 167.508 9.51963H167.519C167.473 9.51963 167.428 9.52531 167.377 9.52531C165.398 9.52531 163.794 7.9385 163.754 5.97062C163.799 3.92312 165.466 2.27375 167.519 2.26806C167.57 2.26237 167.633 2.26238 167.701 2.26238C169.68 2.26238 171.29 3.86625 171.29 5.85119C171.29 5.86825 171.29 5.87963 171.29 5.89669V5.891ZM131.062 45.1916H139.519V36.9447H130.988V28.4874H122.957V37.0187H114.426V45.1916H122.957V53.5807H131.13V45.2656L131.062 45.1916ZM30.6322 45.1916H55.7937V36.9447H30.7062V45.1916H30.6322ZM93.1094 40.9999C99.0073 28.3623 110.024 18.9552 123.412 15.3436L123.742 15.2697C124.846 15.082 126.12 14.9739 127.416 14.9739C127.672 14.9739 127.928 14.9796 128.184 14.9853H128.144C128.378 14.9796 128.656 14.9739 128.935 14.9739C143.449 14.9739 155.257 26.5423 155.649 40.9601V40.9942C155.177 55.4632 143.336 67.0146 128.798 67.0146C128.594 67.0146 128.389 67.0146 128.184 67.0089H128.213C126.791 67.0089 125.227 66.8667 123.805 66.7245C110.098 63.0163 99.0927 53.6148 93.2914 41.2843L93.172 40.9999H93.1094ZM46.7677 66.588C45.6472 66.7757 44.3505 66.8838 43.031 66.8838C42.7693 66.8838 42.5077 66.8781 42.2518 66.8724H42.2916C42.121 66.8781 41.9162 66.8781 41.7115 66.8781C27.1856 66.8781 15.3613 55.3211 14.929 40.8976V40.8578C15.4011 26.3888 27.2425 14.8374 41.7797 14.8374C41.9845 14.8374 42.1892 14.8374 42.394 14.8431H42.3655C43.7874 14.8431 45.3515 14.9853 46.8416 15.1275C60.5883 18.7618 71.6163 28.186 77.355 40.5677L77.4745 40.8521C71.6448 53.5352 60.5997 62.9708 47.1658 66.5084L46.8416 66.5823L46.7677 66.588ZM170.01 40.9999C169.572 18.6481 151.355 0.692627 128.935 0.692627C128.685 0.692627 128.429 0.692624 128.179 0.698311H128.218C126.159 0.698311 123.953 0.8405 121.82 1.05094C106.287 4.15063 93.3596 13.4383 85.4938 26.1897L85.3573 26.4286C77.264 13.5009 64.3477 4.23594 49.1848 1.11919L48.8265 1.05663C46.6937 0.84619 44.5609 0.704001 42.4281 0.704001C42.2347 0.698314 42.0072 0.698311 41.7797 0.698311C19.3653 0.698311 1.14253 18.6481 0.70459 40.9601V40.9999C1.14253 63.3518 19.3653 81.3016 41.7797 81.3016C42.0072 81.3016 42.2347 81.3016 42.4622 81.2959H42.4281C44.7372 81.2902 47.0065 81.1366 49.2303 80.8409L48.963 80.8693C64.5126 77.8037 77.4631 68.5331 85.3573 55.8045L85.4938 55.5713C93.5701 68.5104 106.498 77.781 121.666 80.8807L122.025 80.9433C124.226 81.1537 126.29 81.2959 128.491 81.2959C128.622 81.2959 128.77 81.2959 128.924 81.2959C151.338 81.2959 169.561 63.3461 169.993 41.0341V40.9942L170.01 40.9999Z" fill="black"/>
</svg>
