<svg width="162" height="182" viewBox="0 0 162 182" fill="none" xmlns="http://www.w3.org/2000/svg">
<path d="M159.676 136.502C160.944 134.304 161.733 131.827 161.733 129.603V52.3961C161.733 50.1722 160.944 47.6957 159.676 45.5022L80.8662 90.9997L159.676 136.502Z" fill="black"/>
<path d="M87.8726 180.332L154.729 141.733C156.654 140.621 158.408 138.701 159.677 136.502L80.8675 90.9995L2.05811 136.502C3.3267 138.701 5.08049 140.621 7.00612 141.733L73.8624 180.332C77.7137 182.555 84.0213 182.555 87.8726 180.332Z" fill="black"/>
<path d="M159.676 45.5025C158.407 43.2989 156.653 41.3834 154.728 40.2715L87.8715 1.66787C84.0202 -0.555957 77.7126 -0.555957 73.8614 1.66787L7.00505 40.2715C3.15379 42.4953 0 47.9538 0 52.4014V129.604C0 131.827 0.788446 134.304 2.05704 136.503L80.8664 91L159.676 45.5025Z" fill="black"/>
<path d="M80.8662 144.912C51.1377 144.912 26.9536 120.728 26.9536 90.9996C26.9536 61.271 51.1377 37.0869 80.8662 37.0869C100.047 37.0869 117.938 47.4125 127.551 64.0255L104.221 77.5302C101.847 73.4374 98.4406 70.0385 94.3426 67.6725C90.2447 65.3065 85.5981 64.0561 80.8662 64.0458C73.7205 64.0551 66.8702 66.8979 61.8174 71.9507C56.7646 77.0035 53.9218 83.8538 53.9125 90.9996C53.9191 98.147 56.7607 105 61.8138 110.055C66.8669 115.11 73.7188 117.954 80.8662 117.963C85.5986 117.953 90.2455 116.701 94.3435 114.334C98.4415 111.968 101.847 108.568 104.221 104.474L127.551 117.974C122.802 126.151 115.993 132.942 107.801 137.667C99.61 142.393 90.323 144.894 80.8662 144.912Z" fill="#DADADA"/>
<path d="M134.778 88.0081H128.779V82.0139H122.79V88.0081H116.801V93.9973H122.79V99.9865H128.779V93.9973H134.773L134.778 88.0081ZM157.239 88.0081H151.25V82.0139H145.256V88.0081H139.266V93.9973H145.256V99.9865H151.245V93.9973H157.234L157.239 88.0081Z" fill="#DADADA"/>
</svg>
