<svg width="130" height="182" viewBox="0 0 130 182" fill="none" xmlns="http://www.w3.org/2000/svg">
<path d="M46.5382 16.5939V24.4206H26.5246V0.177979H46.5382V8.75544H35.102V16.5939H46.5382ZM67.1116 8.75544H75.1068V0.177979H55.0911C55.0911 0.177979 55.0911 4.48342 55.0911 8.75544C57.7688 11.4332 59.1651 12.715 63.038 16.5878C60.774 16.5878 55.0911 16.5953 55.0911 16.5953V24.4206H75.1068V16.5939L67.1116 8.75544ZM95.4798 8.75544H103.474V0.177979H83.4593C83.4593 0.177979 83.4593 4.48342 83.4593 8.75544C86.1363 11.4332 87.5333 12.715 91.4058 16.5878C89.1432 16.5878 83.4593 16.5953 83.4593 16.5953V24.4206H103.475V16.5939L95.4798 8.75544ZM129.835 35.942L117.677 167.638L64.9994 181.821L12.3204 167.638L0.164062 35.942H129.835ZM105.337 62.7202H64.9518H23.8525L25.8179 78.6235H64.9518H67.15L64.9518 79.5385L27.2483 95.2421L28.4988 110.787L64.9518 110.905L84.4894 110.967L83.2378 131.695L64.9518 136.844V136.827L64.8018 136.868L47.1407 132.41L46.0689 119.544H46.0106H29.6289H29.5713L31.7155 144.383L64.9518 154.211V154.193L65.0115 154.211L98.0701 144.562L102.36 95.2424H64.9518H64.8594L64.9518 95.2026L103.728 78.6239L105.337 62.7202Z" fill="black"/>
</svg>
