<svg width="92" height="92" viewBox="0 0 92 92" fill="none" xmlns="http://www.w3.org/2000/svg">
<path fill-rule="evenodd" clip-rule="evenodd" d="M79.3332 0.166748C86.2369 0.166748 91.8332 5.76321 91.8332 12.6667V79.3334C91.8332 86.2372 86.2369 91.8334 79.3332 91.8334H12.6665C5.76296 91.8334 0.166504 86.2372 0.166504 79.3334V12.6667C0.166504 5.76321 5.76296 0.166748 12.6665 0.166748H79.3332ZM79.3332 8.50008C81.6344 8.50008 83.4998 10.3656 83.4998 12.6667V79.3334C83.4998 81.6347 81.6344 83.5001 79.3332 83.5001H58.4998V54.333H67.1507C68.944 54.333 70.5361 53.1855 71.1036 51.4838L72.9494 45.9463C73.624 43.9226 72.1177 41.833 69.9848 41.833H58.4998V33.4997C58.4998 31.4164 60.5832 29.3331 62.6665 29.3331H70.9998C73.3011 29.3331 75.1665 27.4676 75.1665 25.1664V22.3081C75.1665 20.9622 74.3069 19.7555 73.0052 19.412C67.5436 17.9707 62.6665 17.9707 62.6665 17.9707C52.2498 17.9707 45.9998 25.1664 45.9998 31.4164V41.833H37.6665C35.3653 41.833 33.4998 43.6984 33.4998 45.9997V50.1663C33.4998 52.4676 35.3653 54.333 37.6665 54.333H45.9998V83.5001H12.6665C10.3653 83.5001 8.49984 81.6347 8.49984 79.3334V12.6667C8.49984 10.3656 10.3653 8.50008 12.6665 8.50008H79.3332Z" fill="#0F0F0F"/>
</svg>
