<svg width="130" height="182" viewBox="0 0 130 182" fill="none" xmlns="http://www.w3.org/2000/svg">
<path d="M12.6287 0.177979H20.8158V8.26703H28.3052V0.177979H36.4931V24.673H28.3059V16.4702H20.8165V24.673H12.6294V0.177979H12.6287ZM47.2591 8.30115H40.052V0.177979H62.6577V8.30115H55.447V24.673H47.2598V8.30115H47.2591ZM66.2451 0.177979H74.7834L80.0341 8.78494L85.2804 0.177979H93.8199V24.673H85.6661V12.5323L80.0337 21.2413H79.8933L74.257 12.5323V24.673H66.2451V0.177979ZM97.8953 0.177979H106.085V16.5768H117.599V24.673H97.8953V0.177979ZM0.655762 35.8759L12.367 167.233L64.921 181.822L117.621 167.212L129.344 35.8756L0.655762 35.8759ZM104.915 67.0484L104.182 75.216L103.86 78.8375H103.807H65.0002H64.9441H42.2097L43.6821 95.3338H64.9441H65.0002H98.0517H102.393L102 99.6605L98.2145 142.075L97.9721 144.795L65.0002 153.934V153.937L64.9263 153.958L31.9249 144.796L29.6673 119.5H37.1215H45.8401L46.9872 132.349L64.9291 137.195L64.9441 137.19V137.189L82.9134 132.34L84.7821 111.445H65.0002H64.9441H28.9479L24.9883 67.0484L24.6026 62.727H64.9441H65.0002H105.301L104.915 67.0484Z" fill="black"/>
</svg>
