<svg width="99" height="99" viewBox="0 0 99 99" fill="none" xmlns="http://www.w3.org/2000/svg">
<path d="M0 40.0379V9.9C0 4.5144 4.5144 0 9.9 0H89.1C94.4856 0 99 4.5144 99 9.9V40.0379H74.9791C71.1915 29.7 61.1471 22.2738 49.5 22.2738C37.8529 22.2738 27.8085 29.7 24.0209 40.0379H0ZM0 48.7732H22.2738V49.5C22.2738 64.4967 34.5033 76.7262 49.5 76.7262C64.4968 76.7262 76.7262 64.4967 76.7262 49.5V48.7732H99V89.1C99 94.4856 94.4856 99 89.1 99H9.9C4.5144 99 0 94.4856 0 89.1V48.7732ZM90.4091 8.73529H85.4568V31.4471H90.4091V8.73529ZM80.5091 8.73529H75.5568V31.4471H80.5091V8.73529ZM70.6091 8.73529H65.6568V23.0053C67.2594 24.17 69.0065 25.4791 70.6091 26.7929V8.73529ZM49.5 68.1353C39.1621 68.1353 31.0091 59.8379 31.0091 49.5C31.0091 39.1621 39.1621 31.0091 49.5 31.0091C59.8379 31.0091 68.1353 39.1621 68.1353 49.5C68.1353 59.8379 59.8379 68.1353 49.5 68.1353ZM32.1738 8.73529H8.7353V31.4471H24.4588C26.4994 28.3909 29.2621 25.9124 32.1738 23.8765V8.73529Z" fill="black"/>
</svg>
