<svg width="92" height="92" viewBox="0 0 92 92" fill="none" xmlns="http://www.w3.org/2000/svg">
<path d="M23.083 29.3335C26.5348 29.3335 29.333 26.5353 29.333 23.0835C29.333 19.6317 26.5348 16.8335 23.083 16.8335C19.6312 16.8335 16.833 19.6317 16.833 23.0835C16.833 26.5353 19.6312 29.3335 23.083 29.3335Z" fill="#0F0F0F"/>
<path d="M16.833 37.6667C16.833 35.3655 18.6985 33.5 20.9997 33.5H25.1663C27.4675 33.5 29.333 35.3655 29.333 37.6667V71C29.333 73.3013 27.4675 75.1667 25.1663 75.1667H20.9997C18.6985 75.1667 16.833 73.3013 16.833 71V37.6667Z" fill="#0F0F0F"/>
<path d="M41.8332 75.1667H45.9998C48.3011 75.1667 50.1665 73.3013 50.1665 71V52.25C50.1665 46 62.6665 41.8333 62.6665 50.1667V71.0017C62.6665 73.3029 64.5319 75.1667 66.8332 75.1667H70.9998C73.3011 75.1667 75.1665 73.3013 75.1665 71V46C75.1665 37.6667 68.9165 33.5 60.5832 33.5C52.2498 33.5 50.1665 39.75 50.1665 39.75V37.6667C50.1665 35.3655 48.3011 33.5 45.9998 33.5H41.8332C39.5319 33.5 37.6665 35.3655 37.6665 37.6667V71C37.6665 73.3013 39.5319 75.1667 41.8332 75.1667Z" fill="#0F0F0F"/>
<path fill-rule="evenodd" clip-rule="evenodd" d="M79.3332 0.166748C86.2369 0.166748 91.8332 5.76321 91.8332 12.6667V79.3334C91.8332 86.2372 86.2369 91.8334 79.3332 91.8334H12.6665C5.76296 91.8334 0.166504 86.2372 0.166504 79.3334V12.6667C0.166504 5.76321 5.76296 0.166748 12.6665 0.166748H79.3332ZM79.3332 8.50008C81.6344 8.50008 83.4998 10.3656 83.4998 12.6667V79.3334C83.4998 81.6347 81.6344 83.5001 79.3332 83.5001H12.6665C10.3653 83.5001 8.49984 81.6347 8.49984 79.3334V12.6667C8.49984 10.3656 10.3653 8.50008 12.6665 8.50008H79.3332Z" fill="#0F0F0F"/>
</svg>
