<svg width="90" height="88" viewBox="0 0 90 88" fill="none" xmlns="http://www.w3.org/2000/svg">
<path fill-rule="evenodd" clip-rule="evenodd" d="M10.5833 44C10.5833 24.4399 26.4398 8.58333 45.9998 8.58333C65.5599 8.58333 81.4165 24.4399 81.4165 44C81.4165 63.56 65.5599 79.4167 45.9998 79.4167C39.0323 79.4167 32.5468 77.4092 27.0748 73.9421C26.0564 73.2971 24.8085 73.1246 23.6533 73.4692L11.6569 77.0496L16.1737 66.4804C16.7076 65.2312 16.599 63.8004 15.8826 62.6462C12.5236 57.2333 10.5833 50.8496 10.5833 44ZM45.9998 0.25C21.8375 0.25 2.24993 19.8375 2.24993 44C2.24993 51.6587 4.22134 58.8679 7.68589 65.1363L0.501802 81.9458C-0.13329 83.4321 0.148218 85.1513 1.22409 86.3571C2.29997 87.5633 3.97618 88.0383 5.5248 87.5758L24.2724 81.9812C30.6767 85.6521 38.0986 87.75 45.9998 87.75C70.1623 87.75 89.7499 68.1625 89.7499 44C89.7499 19.8375 70.1623 0.25 45.9998 0.25ZM55.5519 53.0933L50.0761 56.9504C47.5115 55.4896 44.6761 53.4504 41.8319 50.6062C38.8753 47.6496 36.6833 44.5971 35.067 41.7971L38.5469 38.8433C40.0403 37.5758 40.449 35.4389 39.529 33.7095L35.095 25.3762C34.4979 24.254 33.4213 23.4658 32.1713 23.2356C30.9212 23.0054 29.6345 23.3583 28.6768 24.1941L27.3622 25.3415C24.2008 28.1006 22.3311 32.6346 23.8807 37.2254C25.4873 41.9846 28.9158 49.475 35.9395 56.4987C43.4961 64.0554 51.1719 67.0312 55.6607 68.1871C59.2773 69.1179 62.6998 67.87 65.1115 65.905L67.5761 63.8967C68.6303 63.0379 69.199 61.7183 69.0999 60.3621C69.0003 59.0058 68.2453 57.7833 67.0769 57.0871L60.084 52.9204C58.6715 52.0792 56.8965 52.1467 55.5519 53.0933Z" fill="black"/>
</svg>
